<svg xmlns="http://www.w3.org/2000/svg" viewBox="0 0 512 512" width="512" height="512" role="img" aria-label="Corpus Scriptura">
  <title>Corpus Scriptura</title>
  <rect x="30" y="30" width="452" height="452" fill="none" stroke="#3D6F4A" stroke-width="16"/>
  <g fill="#3D6F4A">
  <path d="M269.33 168.48C270.26 172.05 265.19 174.7 263.07 177.53C258.05 184.24 253.05 190.95 248.04 197.68C247.82 197.86 247.59 198.22 247.23 197.89C243.72 194.67 240.55 191.39 236.76 188.5C230.83 183.97 224.11 179.96 217.03 177.57C209.79 175.14 202.08 173.24 194.43 173C166.3 172.09 138.85 186.06 125.32 211.55C107.21 245.64 111.38 292.77 141.41 319.04C148.11 324.9 155.7 329.92 164.18 332.87C173.12 335.97 181.87 337.61 191.3 337.61C201.05 337.61 210.74 336.17 219.82 332.52C231.95 327.65 239.25 321.89 248.47 312.74C249.58 312.01 249.93 313.68 250.53 314.44C251.65 315.87 252.86 317.24 253.97 318.68C259.59 325.95 265.17 333.25 270.72 340.58C271.2 341.74 269.19 342.53 268.48 343.19C263.34 347.95 266.19 345.95 259.19 351.35C245.54 361.89 230.04 368.89 213.23 372.53C203.53 374.64 193.12 374.97 183.29 374.38C176.41 373.97 170.01 373.21 163.18 371.8C157.35 370.59 151.59 368.51 146.1 366.25C124.24 357.28 105.59 341.35 93.1 321.36C82.55 304.46 76.93 284.87 75.45 265.15C71.68 214.97 96.22 167.6 142.27 146.27C154.84 140.44 168.16 137.39 181.89 136.41C197.28 135.3 213.18 136.87 227.78 142.12C244 147.96 257.2 156.55 269.33 168.48"/>
  <path d="M437.05 161.36C437.28 161.66 437.51 161.76 437.25 162.17C430.79 172.07 424.24 181.91 417.73 191.78C416.88 192.42 416.64 191.56 415.84 190.94C414.47 189.86 413.09 188.81 411.66 187.81C405.43 183.42 398.71 179.61 391.58 176.88C384.06 174 376.63 172.32 368.66 171.5C368.3 171.46 367.96 171.26 367.59 171.25C363.65 171.17 359.7 171.18 355.75 171.25C352.56 171.31 347.93 172.48 345.35 173.05C334.08 175.54 323.74 183.52 320.44 194.82C319.4 198.38 319.62 199.61 319.6 203.83C319.48 223.5 342.64 230.45 357.53 234.96C360.6 235.89 363.71 236.69 366.79 237.59C398.04 246.79 434.54 257.17 439.45 294.78C440.32 301.46 440.15 308.3 439.47 314.97C436.86 340.54 418.79 359.92 395.36 368.67C367.62 379.03 330.12 377.32 303.02 365.44C291.89 360.56 283.42 355 273.91 347.52C273.77 346.52 273.67 346.88 274.27 345.87C280.1 336.13 285.96 326.41 291.81 316.68C292.4 315.8 294.89 318.75 294.96 318.81C296.55 320.12 298.19 321.39 299.84 322.64C306.06 327.38 313.31 331.2 320.61 333.91C325.18 335.6 328.56 336.6 333.13 337.75C355.86 343.43 391.64 342.96 400.46 316.31C401.68 312.63 401.85 308.63 401.3 304.85C400.64 300.29 399.2 296.1 396.16 292.51C388.03 282.88 372.43 278.46 360.93 275.13C330.05 266.19 294.88 259.65 283.55 225.35C282.21 221.29 281.38 216.8 281.1 212.54C280.74 206.91 280.8 200.75 281.81 195.14C283.17 187.64 285.53 180.69 289.14 173.96C295.6 161.9 306.15 152.51 318.19 146.25C342.65 133.53 372.73 132.97 398.85 140.73C402.89 141.93 407.57 143.82 411.28 145.33C420.73 149.2 429.07 155.09 437.05 161.36"/>
  </g>
</svg>
